
<svg width="1140px" height="600px" viewBox="0 0 1140 600" version="1.1" xmlns="http://www.w3.org/2000/svg" xmlns:xlink="http://www.w3.org/1999/xlink">
    <!-- Generator: Sketch 50.2 (55047) - http://www.bohemiancoding.com/sketch -->
    <desc>Created with Sketch.</desc>
    <defs></defs>
    <g id="Page-1" stroke="none" stroke-width="1" fill="none" fill-rule="evenodd">
        <g id="Group-4">
            <rect id="Rectangle-4" fill="#FFFFFF" x="0" y="0" width="1140" height="600"></rect>
            <g id="T_13" transform="translate(496.000000, 96.000000)">
                <rect id="Rectangle-path" fill="#FFFFFF" fill-rule="nonzero" x="0" y="0" width="644" height="407"></rect>
                <path d="M644,407 C643.99887,406.870891 644,406.742007 644,406.612898 C644,228.662097 499.835742,84.4045644 322,84.4045644 C144.164258,84.4045644 0,228.662097 0,406.612898 C0,406.742007 0.00112982456,406.870891 0,407 L644,407 Z" id="Shape" fill="#EDEDED" fill-rule="nonzero"></path>
                <path d="M569.747704,396.170634 L63.6043775,396.170634 C61.5153319,396.170634 59.8217249,394.475932 59.8217249,392.385534 C59.8217249,390.295137 61.5153319,388.600434 63.6043775,388.600434 L569.747704,388.600434 C571.836749,388.600434 573.530356,390.295137 573.530356,392.385534 C573.530131,394.475932 571.836749,396.170634 569.747704,396.170634 Z" id="Shape" fill="#C7C7C7" fill-rule="nonzero"></path>
                <g id="Group" transform="translate(64.400000, 43.865556)">
                    <rect id="Rectangle-path" fill="#E6E6E6" fill-rule="nonzero" x="13.2602989" y="0.107176667" width="141.156891" height="170.146576"></rect>
                    <rect id="Rectangle-path" fill="#FFFFFF" fill-rule="nonzero" x="21.4040744" y="7.74272278" width="124.86934" height="154.875032"></rect>
                    <g transform="translate(0.000000, 13.340556)" id="Shape">
                        <g fill="#E9E9EA" fill-rule="nonzero">
                            <polygon points="153.391761 9.82000556 0.0560392982 9.82000556 7.79014035 0.0621805556 161.125862 0.0621805556"></polygon>
                            <polygon points="153.391761 28.662975 0.0560392982 28.662975 7.79014035 18.9049239 161.125862 18.9049239"></polygon>
                            <polygon points="153.391761 47.5059444 0.0560392982 47.5059444 7.79014035 37.7478933 161.125862 37.7478933"></polygon>
                            <polygon points="153.391761 66.3486878 0.0560392982 66.3486878 7.79014035 56.5908628 161.125862 56.5908628"></polygon>
                            <polygon points="153.391761 85.1916572 0.0560392982 85.1916572 7.79014035 75.4336061 161.125862 75.4336061"></polygon>
                            <polygon points="153.391761 104.034401 0.0560392982 104.034401 7.79014035 94.2765756 161.125862 94.2765756"></polygon>
                        </g>
                        <path d="M140.350422,0.0621805556 L140.350422,132.881204" stroke="#E9E9EA" stroke-width="1.20796323"></path>
                        <path d="M140.350422,141.885174 C138.45774,141.885174 136.923213,140.34988 136.923213,138.455747 L136.923213,125.793977 C136.923213,123.900071 138.457514,122.364776 140.350196,122.364776 C142.242879,122.364776 143.77718,123.900071 143.77718,125.793977 L143.77718,138.455747 C143.777632,140.349654 142.243105,141.885174 140.350422,141.885174 Z" fill="#E9E9EA" fill-rule="nonzero"></path>
                    </g>
                </g>
                <g id="Group" transform="translate(294.206316, 203.952222)" fill-rule="nonzero">
                    <path d="M77.1722147,92.5716978 L21.1686189,92.5716978 C16.3709319,92.5716978 12.4816239,88.6798733 12.4816239,83.8790822 L12.4816239,8.81855944 C12.4816239,4.01776833 16.3709319,0.125943889 21.1686189,0.125943889 L77.1722147,0.125943889 C81.9699018,0.125943889 85.8592098,4.01776833 85.8592098,8.81855944 L85.8592098,83.8790822 C85.8589839,88.6798733 81.9699018,92.5716978 77.1722147,92.5716978 Z" id="Shape" fill="#EA3029"></path>
                    <path d="M6.32272421,92.1920572 C5.56641965,92.1920572 4.95315088,91.5783917 4.95315088,90.8215978 L4.95315088,63.4282367 C4.95315088,62.6714428 5.56641965,62.0577772 6.32272421,62.0577772 C7.07925474,62.0577772 7.69229754,62.6714428 7.69229754,63.4282367 L7.69229754,90.8215978 C7.69229754,91.5786178 7.07902877,92.1920572 6.32272421,92.1920572 Z" id="Shape" fill="#FFFFFF"></path>
                    <path d="M12.4816239,63.689395 L0.163598596,63.689395 L0.163598596,59.2596522 C0.163598596,55.8560017 2.92104842,53.0967678 6.32249825,53.0967678 C9.72394807,53.0967678 12.4813979,55.8560017 12.4813979,59.2596522 L12.4813979,63.689395 L12.4816239,63.689395 Z" id="Shape" fill="#000000"></path>
                    <g transform="translate(0.000000, 52.910000)">
                        <rect id="Rectangle-path" fill="#295278" transform="translate(49.170394, 89.874644) rotate(180.000000) translate(-49.170394, -89.874644) " x="44.1971324" y="63.7390264" width="9.94652351" height="52.2712361"></rect>
                        <path d="M83.5243144,124.136583 L14.6280646,124.136583 L14.6280646,120.599074 C14.6280646,117.499091 17.1394386,114.986092 20.2374175,114.986092 L77.9149614,114.986092 C81.0129404,114.986092 83.5243144,117.499091 83.5243144,120.599074 L83.5243144,124.136583 Z" id="Shape" fill="#295278"></path>
                        <rect id="Rectangle-path" fill="#000000" transform="translate(49.170507, 68.474991) rotate(180.000000) translate(-49.170507, -68.474991) " x="41.2851226" y="48.5096065" width="15.7707691" height="39.93077"></rect>
                        <ellipse id="Oval" fill="#000000" cx="20.1280505" cy="126.883833" rx="4.63770386" ry="4.85460556"></ellipse>
                        <ellipse id="Oval" fill="#000000" cx="78.0941516" cy="126.883833" rx="4.63770386" ry="4.85460556"></ellipse>
                        <path d="M0.163598596,45.4114772 L0.163598596,45.1344911 C0.163598596,41.7760628 2.88444211,39.053685 6.24047298,39.053685 L92.1001347,39.053685 C95.4563916,39.053685 98.1770091,41.7762889 98.1770091,45.1344911 L98.1770091,45.4114772 C98.1770091,48.7699056 95.4561656,51.4922833 92.1001347,51.4922833 L6.24047298,51.4922833 C2.88444211,51.4925094 0.163598596,48.7699056 0.163598596,45.4114772 Z" id="Shape" fill="#A41F18"></path>
                        <path d="M92.0181095,41.0832583 C91.2615789,41.0832583 90.6485361,40.4695928 90.6485361,39.7127989 L90.6485361,10.9313417 C90.6485361,10.1745478 91.2618049,9.56088222 92.0181095,9.56088222 C92.774414,9.56088222 93.3876828,10.1745478 93.3876828,10.9313417 L93.3876828,39.7127989 C93.3876828,40.4695928 92.774414,41.0832583 92.0181095,41.0832583 Z" id="Shape" fill="#FFFFFF"></path>
                        <path d="M98.1770091,11.2673428 L85.8589839,11.2673428 L85.8589839,6.34965222 C85.8589839,2.94600167 88.6164337,0.186767778 92.0178835,0.186767778 C95.4193333,0.186767778 98.1767832,2.94600167 98.1767832,6.34965222 L98.1767832,11.2673428 L98.1770091,11.2673428 Z" id="Shape" fill="#000000"></path>
                    </g>
                </g>
                <g id="Group" transform="translate(257.374035, 136.118889)">
                    <path d="M69.91264,80.9941306 L56.3450288,120.310557" id="Shape" stroke="#EC8981" stroke-width="17.6138519" stroke-linecap="round"></path>
                    <path d="M78.2371874,83.8702639 C79.8241389,79.2704856 77.3864295,74.2514972 72.7871396,72.6639711 C68.1892056,71.0753144 63.1754961,73.5170883 61.5876407,78.1173189 L55.2011944,96.6242872 L71.9874498,101.981086 L78.2371874,83.8702639 Z" id="Shape" fill="#2572AB" fill-rule="nonzero"></path>
                    <path d="M18.3442835,117.152011 L54.8335495,112.125334 C59.6739439,111.458533 64.1378807,114.844321 64.8042512,119.687847 C65.4706218,124.531373 62.0870232,128.998198 57.2466288,129.664999 C56.6970821,129.740747 56.1036982,129.760192 55.5686133,129.735094 L18.7876267,127.771319 C15.8453375,127.614172 13.5874961,125.100268 13.7445418,122.156076 C13.8830582,119.557154 15.8593474,117.492534 18.3442835,117.152011 Z" id="Shape" fill="#EC8981" fill-rule="nonzero"></path>
                    <path d="M0.100102456,129.589931 L12.8804519,129.589931 C16.4757796,129.634927 19.5665277,127.23227 20.6310484,123.795381 L22.7216758,117.044382 L10.38128,115.967188 C4.85372632,115.484667 0.0998764912,119.844542 0.0998764912,125.396926 L0.0998764912,129.589931 L0.100102456,129.589931 Z" id="Shape" fill="#EC8981" fill-rule="nonzero"></path>
                    <path d="M119.108139,140.963319 L60.0795509,140.963319 L60.0795509,83.5220528 C60.0795509,76.5053728 65.7639242,70.8173217 72.7760674,70.8173217 L106.411622,70.8173217 C113.423766,70.8173217 119.108139,76.5053728 119.108139,83.5220528 L119.108139,140.963319 Z" id="Shape" fill="#2A84C6" fill-rule="nonzero"></path>
                    <path d="M110.546554,83.485875 L119.962738,123.999333" id="Shape" stroke="#FB9E9E" stroke-width="17.6138519" stroke-linecap="round"></path>
                    <path d="M119.124634,81.48954 C118.022604,76.7497989 113.289994,73.7979183 108.551736,74.9024711 C103.81393,76.005215 100.866895,80.7420167 101.968248,85.48221 L106.40055,104.552421 L123.462031,100.151621 L119.124634,81.48954 Z" id="Shape" fill="#2A84C6" fill-rule="nonzero"></path>
                    <path d="M105.042953,118.747677 L116.980001,115.283654 C121.847964,113.870912 126.938727,116.67469 128.350556,121.545802 C129.762385,126.416913 126.96042,131.510971 122.092458,132.923713 C120.33671,133.433141 118.560174,133.395381 116.929385,132.908789 L105.012448,129.376256 C102.081909,128.507537 100.409768,125.426094 101.277926,122.493433 C101.829958,120.629599 103.31048,119.264567 105.042953,118.747677 Z" id="Shape" fill="#EC8981" fill-rule="nonzero"></path>
                    <path d="M96.4237474,129.890658 L109.204097,129.890658 C112.799425,129.935654 115.890173,127.532998 116.954693,124.096109 C118.029834,120.624851 115.627149,117.046869 112.008999,116.730992 L106.704925,116.268142 C101.177145,115.785621 96.4235214,120.145496 96.4235214,125.69788 L96.4235214,129.890658 L96.4237474,129.890658 Z" id="Shape" fill="#FB9E9E" fill-rule="nonzero"></path>
                    <path d="M110.046268,159.797018 L60.0795509,159.797018 L60.0795509,136.576312 L119.107913,136.576312 L119.107913,149.017849 C119.108139,154.025758 115.050939,159.797018 110.046268,159.797018 Z" id="Shape" fill="#001F39" fill-rule="nonzero"></path>
                    <path d="M43.2471986,145.468583 L68.2459228,137.248766 C74.3246049,135.249944 80.8719382,138.560663 82.8692421,144.643504 C84.8055354,150.540029 81.7283453,156.887194 76.0023944,159.090421 L51.4257726,168.498904 C45.1242891,170.911284 38.0617558,167.755225 35.6509361,161.449664 C33.2401165,155.144104 36.3941347,148.077001 42.6956182,145.664622 C42.8650919,145.599728 43.077047,145.525337 43.2471986,145.468583 Z" id="Shape" fill="#001F39" fill-rule="nonzero"></path>
                    <path d="M89.9914302,142.233612 L105.893033,137.24854 C112.001542,135.333605 118.505039,138.736351 120.418735,144.848813 C122.240013,150.665747 119.207789,156.856217 113.649505,159.089969 L98.1700042,165.263707 C91.8999298,167.764269 84.7912996,164.705438 82.2921277,158.431307 C79.7929558,152.157176 82.8500351,145.043947 89.1201095,142.543158 C89.399854,142.431911 89.708974,142.323378 89.9914302,142.233612 Z" id="Shape" fill="#001F39" fill-rule="nonzero"></path>
                    <path d="M57.8818161,153.978501 L83.5256702,231.214213 C85.0055144,235.671767 82.5942428,240.485673 78.1395705,241.966474 C73.9870133,243.347109 69.5079368,241.305326 67.72304,237.416441 L34.0517825,163.331361 C31.1214695,156.883803 33.9693053,149.279912 40.4126947,146.347703 C46.8560842,143.415494 54.4550582,146.265173 57.3853712,152.712731 C57.573374,153.12561 57.74104,153.557708 57.8818161,153.978501 Z" id="Shape" fill="#092A45" fill-rule="nonzero"></path>
                    <path d="M66.9936253,234.315553 L54.3761965,248.203749 C52.9571368,249.765725 53.8935354,252.279176 55.9877782,252.530612 L64.3143593,253.530475 C66.0373418,253.737367 67.7752379,253.288988 69.1834512,252.274428 L81.1769909,243.633366 C82.3339312,242.799694 83.0778077,241.509278 83.2197137,240.089752 L83.7968281,234.315553 L66.9936253,234.315553 Z" id="Shape" fill="#000000" fill-rule="nonzero"></path>
                    <path d="M102.904421,154.602794 L107.426657,234.243876 C107.692844,238.933646 104.109492,242.951414 99.4227537,243.217773 C95.0600491,243.465817 91.2731032,240.334178 90.5563425,236.123085 L77.4641614,157.436644 C76.3015719,150.449359 81.0197193,143.84194 88.002487,142.678598 C94.9852547,141.515257 101.588401,146.236457 102.750991,153.223742 C102.826915,153.680939 102.877531,154.150346 102.904421,154.602794 Z" id="Shape" fill="#092A45" fill-rule="nonzero"></path>
                    <path d="M90.733047,235.183593 L78.1156182,249.07179 C76.6965586,250.633539 77.6329572,253.147217 79.7272,253.398652 L88.0537811,254.398516 C89.7767635,254.605407 91.5146596,254.157029 92.922873,253.142468 L104.916413,244.501406 C106.073353,243.667734 106.817455,242.377318 106.959135,240.957793 L107.53625,235.183593 L90.733047,235.183593 Z" id="Shape" fill="#000000" fill-rule="nonzero"></path>
                    <path d="M97.7280168,70.7784306 L82.7447354,70.7784306 L73.4632267,70.7784306 L74.7189137,74.9544767 L74.9634077,75.7677983 C76.8240028,81.9557811 83.3453502,85.4629906 89.5295579,83.6014178 L89.5295579,83.6011917 C95.1310021,81.914855 98.5195719,76.4011356 97.7280168,70.7784306 Z" id="Shape" fill="#2572AB" fill-rule="nonzero"></path>
                    <polygon id="Shape" fill="#EC8981" fill-rule="nonzero" points="90.1136772 50.2251567 70.4160898 56.1551467 75.747054 73.8854233 94.3215958 64.2203039"></polygon>
                    <path d="M94.3215958,64.2203039 L75.747054,73.8854233 L75.9621726,74.6008389 C77.5986105,80.0435594 83.3347298,83.1283933 88.7741572,81.4908967 L88.7741572,81.4906706 C94.2135846,79.8531739 97.2964239,74.1133433 95.659986,68.6703967 L94.3215958,64.2203039 Z" id="Shape" fill="#FB9E9E" fill-rule="nonzero"></path>
                    <path d="M79.7007621,67.78585 L67.5192196,67.78585 C58.2833558,67.78585 50.7962344,60.2938844 50.7962344,51.052045 L50.7962344,23.9361222 C50.7962344,14.6942828 58.2833558,7.20231722 67.5192196,7.20231722 L79.7007621,7.20231722 C88.936626,7.20231722 96.4237474,14.6942828 96.4237474,23.9361222 L96.4237474,51.052045 C96.4237474,60.2938844 88.936626,67.78585 79.7007621,67.78585 Z" id="Shape" fill="#FB9E9E" fill-rule="nonzero"></path>
                    <path d="M96.4237474,50.3863739 L96.4237474,37.4941967 L90.3498105,37.4941967 L90.3498105,47.9057089 L50.7960084,47.9057089 L50.7960084,50.3863739 L50.7960084,51.052045 L50.7960084,51.8549656 L50.8163453,51.8549656 C51.2350582,60.7237217 58.55248,67.78585 67.5189937,67.78585 L79.7005361,67.78585 C88.6672758,67.78585 95.9844716,60.7237217 96.4034105,51.8549656 L96.4237474,51.8549656 L96.4237474,51.0545322 C96.4237474,51.0536278 96.4237474,51.0529494 96.4237474,51.052045 L96.4237474,50.3863739 Z" id="Shape" fill="#734036" fill-rule="nonzero"></path>
                    <path d="M66.4540211,53.0556156 C67.3488421,56.1691656 70.2106877,58.44927 73.6098779,58.44927 C77.009294,58.44927 79.8711396,56.1691656 80.7657347,53.0556156 L66.4540211,53.0556156 Z" id="Shape" fill="#FFFFFF" fill-rule="nonzero"></path>
                    <ellipse id="Oval" fill="#231F20" fill-rule="nonzero" cx="56.7436309" cy="35.1894461" rx="1.54243649" ry="1.54343444"></ellipse>
                    <ellipse id="Oval" fill="#231F20" fill-rule="nonzero" cx="75.1523144" cy="35.1894461" rx="1.54243649" ry="1.54343444"></ellipse>
                    <path d="M66.9269656,49.460675 C65.0078456,49.460675 63.4523032,47.9039 63.4523032,45.9837644 L63.4523032,36.2345317 C63.4523032,34.31417 65.0080716,32.7576211 66.9269656,32.7576211 C68.8460856,32.7576211 70.4016281,34.3143961 70.4016281,36.2345317 L70.4016281,45.9837644 C70.4016281,47.9039 68.8460856,49.460675 66.9269656,49.460675 Z" id="Shape" fill="#FB9E9E" fill-rule="nonzero"></path>
                    <path d="M59.4425558,22.6020667 L76.8066035,22.6020667 C83.0073067,22.6020667 88.0341221,17.5719989 88.0341221,11.3672839 C88.0341221,5.16256889 83.0073067,0.132501111 76.8066035,0.132501111 L42.9509586,0.132501111 L42.9509586,6.09979944 C42.9509586,15.21366 50.3343621,22.6020667 59.4425558,22.6020667 Z" id="Shape" fill="#734036" fill-rule="nonzero"></path>
                    <path d="M86.7804688,21.796885 C84.8346849,21.796885 83.2572239,20.2184033 83.2572239,18.2713606 L83.2572239,8.59357889 L90.9983298,8.59357889 C93.9946246,8.59357889 96.4237474,11.0240472 96.4237474,14.0225067 L96.4237474,37.9452883 L90.3037137,37.9452883 L90.3037137,25.3224094 C90.3037137,23.3753667 88.7262526,21.796885 86.7804688,21.796885 Z" id="Shape" fill="#734036" fill-rule="nonzero"></path>
                    <ellipse id="Oval" fill="#FB9E9E" fill-rule="nonzero" cx="92.9888547" cy="37.4941967" rx="4.95473263" ry="4.95793833"></ellipse>
                    <rect id="Rectangle-path" fill="#734036" fill-rule="nonzero" x="53.7337782" y="27.9495944" width="9.10435228" height="2.293445"></rect>
                    <rect id="Rectangle-path" fill="#734036" fill-rule="nonzero" x="73.0316337" y="27.9495944" width="9.10435228" height="2.293445"></rect>
                </g>
                <g id="Group" transform="translate(123.376842, 265.454444)" fill-rule="nonzero">
                    <path d="M371.200018,10.4768583 L5.31220912,10.4768583 C2.45397895,10.4768583 0.136934737,8.158315 0.136934737,5.29823556 C0.136934737,2.43815611 2.45397895,0.119612778 5.31220912,0.119612778 L371.200018,0.119612778 C374.058248,0.119612778 376.375293,2.43815611 376.375293,5.29823556 C376.375067,8.158315 374.058248,10.4768583 371.200018,10.4768583 Z" id="Shape" fill="#FFFFFF"></path>
                    <rect id="Rectangle-path" fill="#B58469" x="21.6139958" y="10.4768583" width="333.28401" height="17.0892517"></rect>
                    <rect id="Rectangle-path" fill="#D19879" x="21.6139958" y="15.7701194" width="333.28401" height="11.7959906"></rect>
                    <g transform="translate(67.563509, 27.359444)" id="Shape">
                        <polygon fill="#E6B398" points="17.3532014 95.7867717 3.85518737 95.7867717 24.9460744 0.206665556 38.4440884 0.206665556"></polygon>
                        <polygon fill="#D19879" points="13.6697474 95.7867717 0.171507368 95.7867717 21.2623944 0.206665556 34.7606344 0.206665556"></polygon>
                    </g>
                    <g transform="translate(27.793684, 27.359444)" id="Shape">
                        <polygon fill="#E6B398" points="59.4628926 38.178635 24.1075186 38.178635 25.9161418 31.5603628 60.9194625 31.5603628"></polygon>
                        <polygon fill="#D19879" points="17.2612337 95.7867717 3.76321965 95.7867717 24.8541067 0.206665556 38.3521207 0.206665556"></polygon>
                        <polygon fill="#E6B398" points="13.5777796 95.7867717 0.0795396491 95.7867717 21.1706526 0.206665556 34.6686667 0.206665556"></polygon>
                    </g>
                    <g transform="translate(267.994386, 27.359444)" id="Shape">
                        <polygon fill="#E6B398" points="21.2700772 95.7867717 34.7683172 95.7867717 13.6774302 0.206665556 0.179190175 0.206665556"></polygon>
                        <polygon fill="#D19879" points="24.9535312 95.7867717 38.4517712 95.7867717 17.3608842 0.206665556 3.86264421 0.206665556"></polygon>
                    </g>
                    <g transform="translate(284.715789, 27.359444)" id="Shape">
                        <polygon fill="#E6B398" points="1.73337684 38.178635 37.0008505 38.178635 35.1922274 31.5603628 0.188906667 31.5603628"></polygon>
                        <polygon fill="#D19879" points="44.410466 95.7867717 57.90848 95.7867717 36.8178189 0.206665556 23.3195789 0.206665556"></polygon>
                        <polygon fill="#E6B398" points="48.09392 95.7867717 61.59216 95.7867717 40.501273 0.206665556 27.003033 0.206665556"></polygon>
                    </g>
                </g>
                <g id="Group" transform="translate(381.654737, 135.440556)">
                    <polyline id="Shape" stroke="#6D7F9E" stroke-width="3.52277039" points="75.4937474 122.983868 107.642679 42.5002967 37.351774 14.291805"></polyline>
                    <path d="M60.8003789,120.600431 L86.2743074,120.600431 C90.18576,120.600431 93.3567256,123.773448 93.3567256,127.687432 L93.3567256,130.133502 L53.7179607,130.133502 L53.7179607,127.687432 C53.7179607,123.773448 56.8889263,120.600431 60.8003789,120.600431 Z" id="Shape" fill="#6D7F9E" fill-rule="nonzero"></path>
                    <path d="M68.1437867,120.600431 L70.4088589,120.600431 L70.4088589,118.444688 C70.4088589,117.818812 69.9017937,117.311419 69.2763228,117.311419 C68.6508519,117.311419 68.1437867,117.818812 68.1437867,118.444688 L68.1437867,120.600431 Z" id="Shape" fill="#FFFFFF" fill-rule="nonzero"></path>
                    <ellipse id="Oval" fill="#6D7F9E" fill-rule="nonzero" cx="107.642679" cy="42.5002967" rx="4.48924491" ry="4.49214944"></ellipse>
                    <ellipse id="Oval" fill="#FFFFFF" fill-rule="nonzero" cx="107.642679" cy="42.5002967" rx="2.10350737" ry="2.10486833"></ellipse>
                    <g fill-rule="nonzero">
                        <ellipse id="Oval" fill="#FFFFFF" cx="23.3211607" cy="35.3741789" rx="5.59511719" ry="5.59873722"></ellipse>
                        <path d="M0.123150877,27.9599956 C4.7875186,15.439545 18.6721586,8.99967444 31.2446204,13.5752589 C43.8170821,18.1508433 50.3226119,32.0116806 45.8589011,44.605165 L0.123150877,27.9599956 Z" id="Shape" fill="#6D7F9E"></path>
                        <path d="M22.8161291,16.3609478 L35.9150891,21.1282744 L40.1761095,9.40531778 C41.4916772,5.78573111 39.6258849,1.78446889 36.0086386,0.46805 C32.3913923,-0.848368889 28.3927172,1.01863056 27.0771495,4.63821722 L22.8161291,16.3609478 Z" id="Shape" fill="#6D7F9E"></path>
                    </g>
                </g>
                <g id="Group" transform="translate(193.651930, 195.360000)">
                    <path d="M95.2995719,64.7579961 L14.6219635,64.7579961 C12.9518568,64.7579961 11.5174316,63.5697822 11.205826,61.9277633 L0.0833810526,3.33920889 C-0.230258246,1.68769333 1.03537123,0.158051667 2.71542035,0.158051667 L84.4986751,0.158051667 C85.7855453,0.158051667 86.8905137,1.07357556 87.1307144,2.33844111 L98.293607,61.1393139 C98.6501796,63.0182972 97.2107832,64.7579961 95.2995719,64.7579961 Z" id="Shape" fill="#2F4148" fill-rule="nonzero"></path>
                    <path d="M83.1234526,66.9162267 L83.1234526,137.375841 C83.1234526,145.63681 89.8160814,152.333769 98.0717095,152.333769 C106.327338,152.333769 113.019966,145.63681 113.019966,137.375841 L113.019966,70.8984956 C113.019966,70.2056911 113.581263,69.6440311 114.27362,69.6440311 L140.266138,69.6440311" id="Shape" stroke="#2F4148" stroke-width="1.17424926" stroke-linecap="round" stroke-linejoin="round"></path>
                    <path d="M98.293607,61.1397661 L87.1307144,2.33866722 C86.9316393,1.28996389 86.1346611,0.489982778 85.1356702,0.244426111 C83.8051888,0.585175556 82.9008772,1.91561333 83.1713572,3.339435 L94.2940281,61.9282156 C94.5240604,63.1401711 95.3680393,64.1011433 96.464873,64.5232928 C97.7501614,63.9898967 98.5724477,62.6092622 98.293607,61.1397661 Z" id="Shape" fill="#1E2E34" fill-rule="nonzero"></path>
                    <path d="M140.266138,70.2140572 L21.1627439,70.2140572 C18.1513095,70.2140572 15.7102105,67.7713789 15.7102105,64.7579961 L145.718445,64.7579961 C145.718671,67.7713789 143.277346,70.2140572 140.266138,70.2140572 Z" id="Shape" fill="#2F4148" fill-rule="nonzero"></path>
                    <path d="M145.718671,64.7582222 L95.5820281,64.7582222 C95.5820281,67.7713789 98.3525839,70.2142833 101.770303,70.2142833 L139.929902,70.2142833 C143.347395,70.2140572 145.718671,67.7713789 145.718671,64.7582222 Z" id="Shape" fill="#1E2E34" fill-rule="nonzero"></path>
                    <path d="M49.29176,29.6266606 C49.29176,28.8483861 49.5317347,28.1266394 49.9407312,27.5297061 C49.2056674,27.1649889 48.3806695,26.9549317 47.5046035,26.9549317 C44.4671832,26.9549317 42.0048435,29.4188644 42.0048435,32.45825 C42.0048435,35.4976356 44.4671832,37.9613422 47.5046035,37.9613422 C50.2421684,37.9613422 52.5061109,35.9577717 52.9277614,33.3375961 C50.9128323,33.2962178 49.29176,31.65239 49.29176,29.6266606 Z" id="Shape" fill="#FFFFFF" fill-rule="nonzero"></path>
                </g>
                <g id="Group" transform="translate(495.992982, 286.935000)" fill-rule="nonzero">
                    <path d="M40.8806681,101.665661 L3.48257123,101.665661 C1.56480702,101.665661 0.010394386,100.110016 0.010394386,98.1912372 L0.010394386,3.66209556 C0.010394386,1.74309056 1.56503298,0.187672222 3.48257123,0.187672222 L40.8806681,0.187672222 C42.7984323,0.187672222 44.3528449,1.74331667 44.3528449,3.66209556 L44.3528449,98.1912372 C44.3528449,100.110016 42.7982063,101.665661 40.8806681,101.665661 Z" id="Shape" fill="#1E2E34"></path>
                    <path d="M51.2696309,101.665661 L13.1394077,101.665661 C11.4238821,101.665661 10.033294,100.274173 10.033294,98.5575372 L10.033294,3.29556944 C10.033294,1.57893389 11.4238821,0.187446111 13.1394077,0.187446111 L51.2696309,0.187446111 C52.9851565,0.187446111 54.3757446,1.57893389 54.3757446,3.29556944 L54.3757446,98.5575372 C54.3757446,100.273947 52.9849305,101.665661 51.2696309,101.665661 Z" id="Shape" fill="#2F4148"></path>
                    <g transform="translate(15.365614, 63.989444)" id="Oval">
                        <ellipse fill="#1E2E34" cx="17.1988674" cy="17.1313083" rx="17.1179719" ry="17.1290472"></ellipse>
                        <ellipse fill="#131D21" cx="17.1988674" cy="17.1313083" rx="14.5182456" ry="14.5276389"></ellipse>
                        <ellipse fill="#1E2E34" cx="17.1988674" cy="17.1313083" rx="10.2967691" ry="10.3034311"></ellipse>
                    </g>
                    <g transform="translate(19.658947, 33.464444)" id="Oval">
                        <ellipse fill="#1E2E34" cx="12.905534" cy="12.8329361" rx="12.790066" ry="12.7983411"></ellipse>
                        <ellipse fill="#131D21" cx="12.905534" cy="12.8329361" rx="10.8476716" ry="10.85469"></ellipse>
                        <ellipse fill="#1E2E34" cx="12.905534" cy="12.8329361" rx="7.69342737" ry="7.698405"></ellipse>
                    </g>
                    <g transform="translate(23.500351, 6.783333)" id="Oval">
                        <ellipse fill="#1E2E34" cx="9.06413053" cy="9.02138111" rx="8.92990737" ry="8.935685"></ellipse>
                        <ellipse fill="#131D21" cx="9.06413053" cy="9.02138111" rx="7.57366596" ry="7.57856611"></ellipse>
                        <ellipse fill="#1E2E34" cx="9.06413053" cy="9.02138111" rx="5.37163789" ry="5.37511333"></ellipse>
                    </g>
                </g>
                <g id="Group" transform="translate(71.178947, 286.935000)" fill-rule="nonzero">
                    <path d="M13.6254582,101.665661 L51.0235551,101.665661 C52.9413193,101.665661 54.4957319,100.110016 54.4957319,98.1912372 L54.4957319,3.66209556 C54.4957319,1.74309056 52.9410933,0.187672222 51.0235551,0.187672222 L13.6254582,0.187672222 C11.707694,0.187672222 10.1532814,1.74331667 10.1532814,3.66209556 L10.1532814,98.1912372 C10.1530554,100.110016 11.707694,101.665661 13.6254582,101.665661 Z" id="Shape" fill="#1E2E34"></path>
                    <path d="M3.23649544,101.665661 L41.3667186,101.665661 C43.0822442,101.665661 44.4728323,100.274173 44.4728323,98.5575372 L44.4728323,3.29556944 C44.4728323,1.57893389 43.0822442,0.187446111 41.3667186,0.187446111 L3.23649544,0.187446111 C1.52096982,0.187446111 0.130381754,1.57893389 0.130381754,3.29556944 L0.130381754,98.5575372 C0.130381754,100.273947 1.52096982,101.665661 3.23649544,101.665661 Z" id="Shape" fill="#2F4148"></path>
                    <g transform="translate(4.745263, 63.989444)" id="Oval">
                        <ellipse fill="#1E2E34" cx="17.1961558" cy="17.1313083" rx="17.1179719" ry="17.1290472"></ellipse>
                        <ellipse fill="#131D21" cx="17.1961558" cy="17.1313083" rx="14.5182456" ry="14.5276389"></ellipse>
                        <ellipse fill="#1E2E34" cx="17.1961558" cy="17.1313083" rx="10.2967691" ry="10.3034311"></ellipse>
                    </g>
                    <g transform="translate(9.038596, 33.464444)" id="Oval">
                        <ellipse fill="#1E2E34" cx="12.9028225" cy="12.8329361" rx="12.790066" ry="12.7983411"></ellipse>
                        <ellipse fill="#131D21" cx="12.9028225" cy="12.8329361" rx="10.8476716" ry="10.85469"></ellipse>
                        <ellipse fill="#1E2E34" cx="12.9028225" cy="12.8329361" rx="7.69342737" ry="7.698405"></ellipse>
                    </g>
                    <g transform="translate(12.880000, 6.783333)" id="Oval">
                        <ellipse fill="#1E2E34" cx="9.06141895" cy="9.02138111" rx="8.92990737" ry="8.935685"></ellipse>
                        <ellipse fill="#131D21" cx="9.06141895" cy="9.02138111" rx="7.57366596" ry="7.57856611"></ellipse>
                        <ellipse fill="#1E2E34" cx="9.06141895" cy="9.02138111" rx="5.37163789" ry="5.37511333"></ellipse>
                    </g>
                </g>
                <g id="Group" transform="translate(426.395789, 54.718889)" fill-rule="nonzero">
                    <rect id="Rectangle-path" fill="#BABABA" x="13.8636253" y="75.2325933" width="180.119343" height="11.9872806"></rect>
                    <rect id="Rectangle-path" fill="#C7C7C7" x="0.0964870175" y="75.2325933" width="165.243847" height="11.9872806"></rect>
                    <g transform="translate(128.122105, 37.534444)">
                        <rect id="Rectangle-path" fill="#E6E6E6" x="0.079765614" y="0.106724444" width="34.9407284" height="37.5911983"></rect>
                        <rect id="Rectangle-path" fill="#FFFFFF" x="3.95461193" y="3.469675" width="27.1908098" height="30.8652972"></rect>
                        <ellipse id="Oval" fill="#E6E6E6" cx="17.5500168" cy="16.6433606" rx="5.53229895" ry="5.91913667"></ellipse>
                        <path d="M11.4645558,34.3349722 L23.6357039,34.3349722 L23.6357039,27.9457506 C23.6357039,25.5702272 21.7111607,23.644665 19.3373993,23.644665 L15.7630863,23.644665 C13.3890989,23.644665 11.4647818,25.5704533 11.4647818,27.9457506 L11.4647818,34.3349722 L11.4645558,34.3349722 Z" id="Shape" fill="#E6E6E6"></path>
                        <polygon id="Shape" fill="#BABABA" points="35.020494 8.16532444 46.5313726 37.6981489 36.3545909 37.6981489 35.020494 21.85997"></polygon>
                    </g>
                    <g transform="translate(7.456842, 0.000000)">
                        <rect id="Rectangle-path" fill="#E6E6E6" transform="translate(90.079659, 25.524611) rotate(35.590961) translate(-90.079659, -25.524611) " x="87.0296703" y="7.79439864" width="6.09997844" height="35.4604245"></rect>
                        <rect id="Rectangle-path" fill="#D4D4D4" transform="translate(92.258412, 29.608922) rotate(35.590961) translate(-92.258412, -29.608922) " x="89.2084229" y="11.87871" width="6.09997844" height="35.4604245"></rect>
                        <rect id="Rectangle-path" fill="#BABABA" x="16.04848" y="29.6223644" width="90.1981881" height="45.6102289"></rect>
                        <rect id="Rectangle-path" fill="#BABABA" x="53.5977474" y="7.64662556" width="9.31562947" height="46.1047339"></rect>
                        <rect id="Rectangle-path" fill="#BABABA" x="70.5927944" y="3.14769278" width="12.1067481" height="50.6036667"></rect>
                        <rect id="Rectangle-path" fill="#9C9C9C" x="62.9136028" y="0.214353333" width="7.67919158" height="53.5370061"></rect>
                        <rect id="Rectangle-path" fill="#E6E6E6" x="0.202464561" y="29.6223644" width="83.5258961" height="45.6102289"></rect>
                        <path d="M100.235324,42.7137456 L92.6978119,42.7137456 C91.2407902,42.7137456 90.0596716,41.5318628 90.0596716,40.0738983 C90.0596716,38.6159339 91.2407902,37.4340511 92.6978119,37.4340511 L100.235324,37.4340511 C101.692345,37.4340511 102.873464,38.6159339 102.873464,40.0738983 C102.873464,41.5318628 101.692345,42.7137456 100.235324,42.7137456 Z" id="Shape" fill="#8F8F8F"></path>
                    </g>
                    <rect id="Rectangle-path" fill="#A8A8A8" x="93.3628267" y="83.0840756" width="23.9789446" height="23.9944589"></rect>
                    <rect id="Rectangle-path" fill="#FFFFFF" transform="translate(64.186236, 95.077543) rotate(30.000728) translate(-64.186236, -95.077543) " x="52.1970273" y="83.0805775" width="23.978417" height="23.993931"></rect>
                    <rect id="Rectangle-path" fill="#E6E6E6" transform="translate(152.984461, 95.106572) rotate(-12.075149) translate(-152.984461, -95.106572) " x="140.99467" y="83.1090241" width="23.9795806" height="23.9950953"></rect>
                </g>
                <g id="Group" transform="translate(148.232982, 231.537778)" fill-rule="nonzero">
                    <rect id="Rectangle-path" fill="#923738" transform="translate(3.839026, 14.678291) rotate(-12.410105) translate(-3.839026, -14.678291) " x="2.66359768" y="2.72048686" width="2.35085616" height="23.9156083"></rect>
                    <polygon id="Shape" fill="#DEDC94" points="0.137612632 3.25170389 0.601518596 0.180210556 2.43364211 2.74611944"></polygon>
                    <rect id="Rectangle-path" fill="#005E86" transform="translate(7.555831, 14.678429) rotate(-12.410105) translate(-7.555831, -14.678429) " x="6.38040265" y="2.72062477" width="2.35085616" height="23.9156083"></rect>
                    <rect id="Rectangle-path" fill="#00AB89" transform="translate(17.526098, 15.777874) rotate(10.899809) translate(-17.526098, -15.777874) " x="16.3505802" y="3.81915328" width="2.35103629" height="23.9174408"></rect>
                    <rect id="Rectangle-path" fill="#2F4148" transform="translate(9.691894, 13.738069) rotate(30.000728) translate(-9.691894, -13.738069) " x="8.51644998" y="1.78010642" width="2.35088723" height="23.9159244"></rect>
                    <polygon id="Shape" fill="#648A99" points="14.6531467 2.79993389 16.6890905 3.97616389 17.4524 0.842716111"></polygon>
                    <polygon id="Shape" fill="#DEDC94" points="18.6158933 3.80658056 20.9351972 4.24659278 20.5088014 1.38900056"></polygon>
                    <polygon id="Shape" fill="#2A84C6" points="18.8601614 34.0362794 2.61283228 34.0362794 1.16123368 12.1742744 20.31176 12.1742744"></polygon>
                </g>
                <path d="M415.628335,246.737193 C415.40463,246.737193 415.183636,246.748724 414.964225,246.766135 L414.964225,244.451436 L396.736539,244.451436 L396.736539,265.574057 L414.964225,265.574057 L414.964225,263.259358 C415.183411,263.276768 415.404404,263.2883 415.628335,263.2883 C420.195764,263.2883 423.898425,259.583243 423.898425,255.012859 C423.898425,250.442476 420.195764,246.737193 415.628335,246.737193 Z M415.628335,260.298207 C415.403274,260.298207 415.182055,260.282379 414.964225,260.255246 L414.964225,249.770473 C415.181829,249.743114 415.403274,249.727512 415.628335,249.727512 C418.545542,249.727512 420.910265,252.093991 420.910265,255.013086 C420.910265,257.931954 418.545542,260.298207 415.628335,260.298207 Z" id="Shape" fill="#EA3029" fill-rule="nonzero"></path>
            </g>
        </g>
    </g>
</svg>