
<svg width="100px" height="100px" viewBox="0 0 100 100" version="1.1" xmlns="http://www.w3.org/2000/svg" xmlns:xlink="http://www.w3.org/1999/xlink">
    <!-- Generator: Sketch 50.2 (55047) - http://www.bohemiancoding.com/sketch -->
    <desc>Created with Sketch.</desc>
    <defs>
        <circle id="path-1" cx="50" cy="50" r="50"></circle>
    </defs>
    <g id="Page-1" stroke="none" stroke-width="1" fill="none" fill-rule="evenodd">
        <g id="Group-38">
            <mask id="mask-2" fill="white">
                <use xlink:href="#path-1"></use>
            </mask>
            <use id="Mask" fill-opacity="0.307319973" fill="#949398" xlink:href="#path-1"></use>
            <g mask="url(#mask-2)" fill="#EDEDED" fill-rule="nonzero" id="Shape">
                <g transform="translate(5.726872, 5.947137)">
                    <path d="M89.0090308,82.3493392 L65.6068282,69.9731278 L64.5259912,66.5960352 C64.2024229,65.4645374 63.6903084,64.3332599 62.6370044,64.0359031 C62.3024229,63.94163 61.8790749,63.330837 61.8244493,62.9044053 L61.1997797,56.3376652 C61.1654185,55.7753304 61.3909692,55.2707048 61.6878855,54.9162996 C63.480837,52.7678414 64.4581498,50.2795154 64.8715859,47.4345815 C65.0795154,46.004185 65.8237885,44.685022 66.2061674,43.2762115 L67.7066079,35.4240088 C67.8632159,34.3929515 67.8328194,33.5982379 66.6803965,33.1986784 C66.3625551,33.0878855 66.0859031,32.5612335 66.0859031,31.7715859 L66.1011013,16.9557269 C65.8563877,13.3698238 63.9577093,10.5969163 61.2647577,8.66696035 C56.1207048,4.97995595 46.9090308,6.68964758 49.9154185,0.675550661 C50.0929515,0.321585903 50.0363436,-0.29339207 48.8004405,0.16123348 C44.1889868,1.85792952 31.9059471,6.34118943 28.8202643,8.66696035 C26.0585903,10.7482379 24.2290749,13.3698238 23.9839207,16.9557269 L23.9991189,31.7715859 C23.9991189,32.4235683 23.7226872,33.0878855 23.4044053,33.1986784 C22.2517621,33.5980176 22.2215859,34.3929515 22.3781938,35.4240088 L23.8790749,43.2762115 C24.2605727,44.685022 25.0052863,46.0044053 25.2134361,47.4345815 C25.6264317,50.2795154 26.6044053,52.7678414 28.3969163,54.9162996 C28.6936123,55.2707048 28.9193833,55.7753304 28.885022,56.3376652 L28.2603524,62.9044053 C28.2055066,63.330837 27.7814978,63.94163 27.4475771,64.0359031 C26.3940529,64.3332599 25.8817181,65.4645374 25.55837,66.5960352 L24.4770925,69.9731278 L1.07400881,82.3493392 C0.470044053,82.6685022 0.0922907489,83.295815 0.0922907489,83.9786344 L0.0922907489,92.6444934 C0.0922907489,93.6623348 0.91784141,94.4876652 1.93590308,94.4876652 L88.1473568,94.4876652 C89.1654185,94.4876652 89.9909692,93.6623348 89.9909692,92.6444934 L89.9909692,83.9786344 C89.9905286,83.295815 89.6127753,82.6685022 89.0090308,82.3493392 Z"></path>
                </g>
            </g>
        </g>
    </g>
</svg>