
<svg width="17px" height="20px" viewBox="0 0 17 20" version="1.1" xmlns="http://www.w3.org/2000/svg" xmlns:xlink="http://www.w3.org/1999/xlink">
    <!-- Generator: Sketch 50.2 (55047) - http://www.bohemiancoding.com/sketch -->
    <desc>Created with Sketch.</desc>
    <defs></defs>
    <g id="Page-1" stroke="none" stroke-width="1" fill="none" fill-rule="evenodd">
        <g id="Group-6" fill="#2A84C6">
            <path d="M15.4068571,7.33333333 L13.9497143,7.33333333 L13.9497143,5.42857143 C13.9497143,2.53565131 11.5576357,0.19047619 8.60685714,0.19047619 C5.65607862,0.19047619 3.264,2.53565131 3.264,5.42857143 L3.264,7.33333333 L1.80685714,7.33333333 C1.00209936,7.33333333 0.349714286,7.97292655 0.349714286,8.76190476 L0.349714286,18.2857143 C0.349714286,19.0746925 1.00209936,19.7142857 1.80685714,19.7142857 L15.4068571,19.7142857 C16.2116149,19.7142857 16.864,19.0746925 16.864,18.2857143 L16.864,8.76190476 C16.864,7.97292655 16.2116149,7.33333333 15.4068571,7.33333333 L15.4068571,7.33333333 Z M4.72114286,5.42857143 C4.72114286,3.32462952 6.4608364,1.61904762 8.60685714,1.61904762 C10.7528779,1.61904762 12.4925714,3.32462952 12.4925714,5.42857143 L12.4925714,7.33333333 L4.72114286,7.33333333 L4.72114286,5.42857143 Z M15.4068571,18.2857143 L1.80685714,18.2857143 L1.80685714,8.76190476 L15.4068571,8.76190476 L15.4068571,18.2857143 Z" id="Shape"></path>
            <path d="M8.84971429,15.9047619 C10.056851,15.9047619 11.0354286,14.9453721 11.0354286,13.7619048 C11.0354286,12.5784374 10.056851,11.6190476 8.84971429,11.6190476 C7.64257762,11.6190476 6.664,12.5784374 6.664,13.7619048 C6.66667117,14.9442856 7.64368579,15.9021431 8.84971429,15.9047619 Z M8.84971429,13.047619 C9.25209317,13.047619 9.57828571,13.3674157 9.57828571,13.7619048 C9.57828571,14.1563939 9.25209317,14.4761905 8.84971429,14.4761905 C8.4473354,14.4761905 8.12114286,14.1563939 8.12114286,13.7619048 C8.12114286,13.3674157 8.4473354,13.047619 8.84971429,13.047619 Z" id="Shape"></path>
        </g>
    </g>
</svg>