
<svg width="22px" height="20px" viewBox="0 0 22 20" version="1.1" xmlns="http://www.w3.org/2000/svg" xmlns:xlink="http://www.w3.org/1999/xlink">
    <!-- Generator: Sketch 50.2 (55047) - http://www.bohemiancoding.com/sketch -->
    <desc>Created with Sketch.</desc>
    <defs></defs>
    <g id="Page-1" stroke="none" stroke-width="1" fill="none" fill-rule="evenodd">
        <g id="Group-5" fill="#2A84C6">
            <path d="M10.8533333,12.5128205 C13.7395238,12.5128205 16.0914286,9.75384615 16.0914286,6.35897436 C16.0914286,2.96410256 13.7395238,0.205128205 10.8533333,0.205128205 C7.96714286,0.205128205 5.6152381,2.96410256 5.6152381,6.35897436 C5.6152381,9.75384615 7.97238095,12.5128205 10.8533333,12.5128205 Z M10.8533333,1.74358974 C12.8804762,1.74358974 14.52,3.79487179 14.52,6.35897436 C14.52,8.92307692 12.8804762,10.974359 10.8533333,10.974359 C8.82619048,10.974359 7.18666667,8.92307692 7.18666667,6.35897436 C7.18666667,3.79487179 8.82619048,1.74358974 10.8533333,1.74358974 Z" id="Shape"></path>
            <path d="M15.6461905,12 C15.2122525,11.9575166 14.8252986,12.2674733 14.7819048,12.6923077 C14.738511,13.1171421 15.0551096,13.4959781 15.4890476,13.5384615 C17.9258209,13.8187906 19.8136903,15.7575288 19.9833333,18.1538462 L1.72333333,18.1538462 C1.90901227,15.7644841 3.78870777,13.8341401 6.21761905,13.5384615 C6.65155707,13.4959781 6.96815571,13.1171421 6.9247619,12.6923077 C6.8813681,12.2674733 6.49441421,11.9575166 6.06047619,12 C6.00285714,12 0.115238095,12.6564103 0.115238095,18.9179487 C0.115238095,19.3427831 0.467014363,19.6871795 0.900952381,19.6871795 L20.8057143,19.6871795 C21.2396523,19.6871795 21.5914286,19.3427831 21.5914286,18.9179487 C21.5914286,12.6564103 15.7038095,12 15.6461905,12 Z" id="Shape"></path>
        </g>
    </g>
</svg>