
<svg width="275px" height="247px" viewBox="0 0 275 247" version="1.1" xmlns="http://www.w3.org/2000/svg" xmlns:xlink="http://www.w3.org/1999/xlink">
    <!-- Generator: Sketch 50.2 (55047) - http://www.bohemiancoding.com/sketch -->
    <desc>Created with Sketch.</desc>
    <defs>
        <filter x="-29.7%" y="-20.7%" width="159.3%" height="166.9%" filterUnits="objectBoundingBox" id="filter-1">
            <feOffset dx="0" dy="17" in="SourceAlpha" result="shadowOffsetOuter1"></feOffset>
            <feGaussianBlur stdDeviation="12" in="shadowOffsetOuter1" result="shadowBlurOuter1"></feGaussianBlur>
            <feColorMatrix values="0 0 0 0 0   0 0 0 0 0   0 0 0 0 0  0 0 0 0.349382926 0" type="matrix" in="shadowBlurOuter1" result="shadowMatrixOuter1"></feColorMatrix>
            <feMerge>
                <feMergeNode in="shadowMatrixOuter1"></feMergeNode>
                <feMergeNode in="SourceGraphic"></feMergeNode>
            </feMerge>
        </filter>
        <path d="M3.01330645,109.280055 C-3.87943548,121.129145 1.70564516,130.824845 15.4179435,130.824845 L131.794355,130.824845 C145.514516,130.824845 151.099597,121.129145 144.206855,109.280055 L86.1447581,9.46536818 C79.2514113,-2.38493182 67.96875,-2.38493182 61.0760081,9.46536818 L3.01330645,109.280055" id="path-2"></path>
        <linearGradient x1="0%" y1="100%" x2="55.9592902%" y2="5.56141897%" id="linearGradient-4">
            <stop stop-color="#EA3129" offset="0%"></stop>
            <stop stop-color="#B02420" offset="100%"></stop>
        </linearGradient>
    </defs>
    <g id="Page-1" stroke="none" stroke-width="1" fill="none" fill-rule="evenodd">
        <g id="Group-13" transform="translate(0.000000, 6.000000)">
            <rect id="Rectangle-5" fill="#FFFFFF" x="0" y="0" width="275" height="241"></rect>
            <g id="Group-12">
                <g id="Group-11" filter="url(#filter-1)" transform="translate(62.000000, 0.000000)">
                    <path d="M16.5798962,132.437773 C9.49542034,132.437773 4.17646873,130.095764 1.60167034,125.622732 C-0.972523204,121.150305 -0.429982882,115.3775 3.12949292,109.258291 L61.1921945,9.47443636 C64.7516703,3.35522727 69.5746542,0 74.7720332,0 C79.9700171,0 84.793001,3.3782 88.3524768,9.49740909 L146.414574,109.315723 C149.974049,115.434327 150.517195,121.147282 147.943001,125.619105 C145.367598,130.093345 140.045017,132.437773 132.956912,132.437773 L16.5798962,132.437773" id="Fill-110" fill="#FE1F16"></path>
                    <g id="Group-113" transform="translate(1.209677, 0.604545)">
                        <mask id="mask-3" fill="white">
                            <use xlink:href="#path-2"></use>
                        </mask>
                        <g id="Clip-112"></g>
                        <path d="M3.01330645,109.280055 C-3.87943548,121.129145 1.70564516,130.824845 15.4179435,130.824845 L131.794355,130.824845 C145.514516,130.824845 151.099597,121.129145 144.206855,109.280055 L86.1447581,9.46536818 C79.2514113,-2.38493182 67.96875,-2.38493182 61.0760081,9.46536818 L3.01330645,109.280055" id="Fill-111" fill="url(#linearGradient-4)" mask="url(#mask-3)"></path>
                    </g>
                    <path d="M79.9487903,84.1533318 C79.9487903,87.7515864 78.2510081,89.4485455 74.6510081,89.4485455 C71.2542339,89.4485455 69.5564516,87.7515864 69.5564516,84.1533318 L67.7419355,59.4401182 C67.7419355,55.7058409 71.1864919,52.5954545 74.71875,52.5954545 C78.2510081,52.5954545 81.7633065,55.7058409 81.7633065,59.4401182 L79.9487903,84.1533318 Z M74.7864919,94.2014818 C78.2510081,94.2014818 80.9002016,96.8493909 80.9002016,100.243914 C80.9002016,103.638436 78.2510081,106.286345 74.7864919,106.286345 C71.4580645,106.286345 68.741129,103.638436 68.741129,100.243914 C68.741129,96.8493909 71.4580645,94.2014818 74.7864919,94.2014818 Z" id="Fill-114" fill="#F2C4C3"></path>
                    <path d="M80.2131048,84.4169136 L79.9493952,84.4169136 C79.9481855,86.1785591 79.5344758,87.4209 78.727621,88.2273636 C77.9207661,89.0338273 76.6778226,89.4473364 74.9153226,89.4485455 C73.2568548,89.4473364 72.0671371,89.0362455 71.283871,88.2297818 C70.5,87.4239227 70.0850806,86.1779545 70.0844758,84.4169136 L70.0844758,84.4072409 L68.2693548,59.6843545 L68.00625,59.7037 L68.2699597,59.7037 C68.2699597,57.9196864 69.0943548,56.2741136 70.3524194,55.0716727 C71.609879,53.8698364 73.2955645,53.1220136 74.9830645,53.1232227 C76.6705645,53.1220136 78.3743952,53.8704409 79.6487903,55.0728818 C80.9243952,56.2759273 81.7645161,57.9208955 81.7639113,59.7037 L82.027621,59.7037 L81.7645161,59.6843545 L79.9493952,84.4072409 L79.9493952,84.4169136 L80.2131048,84.4169136 L80.4768145,84.4362591 L82.2919355,59.7127682 L82.2919355,59.7037 C82.2913306,57.7516227 81.375,55.9748636 80.0110887,54.6889955 C78.6465726,53.4031273 76.8272177,52.5966636 74.9830645,52.5954545 C73.1383065,52.5960591 71.3352823,53.4037318 69.9877016,54.6902045 C68.640121,55.9766773 67.7425403,57.7534364 67.7419355,59.7037 L67.7419355,59.7127682 L69.5570565,84.4362591 L69.8207661,84.4169136 L69.5564516,84.4169136 C69.5558468,86.2535227 69.9907258,87.6560682 70.9046371,88.59795 C71.8197581,89.5398318 73.1764113,89.9775227 74.9153226,89.9763136 C76.7528226,89.9769182 78.1584677,89.54225 79.1008065,88.6003682 C80.0431452,87.6584864 80.4780242,86.2535227 80.4774194,84.4169136 L80.2131048,84.4169136 L80.4768145,84.4362591 L80.2131048,84.4169136 Z M75.0508065,94.4650636 L75.0508065,94.7286455 C78.3762097,94.7334818 80.8959677,97.2550409 80.9002016,100.507495 C80.8959677,103.75995 78.3762097,106.281509 75.0508065,106.285741 C71.865121,106.284532 69.2703629,103.756323 69.2697581,100.507495 C69.2703629,97.2580636 71.865121,94.7304591 75.0508065,94.7286455 L75.0508065,94.2008773 C73.316129,94.2008773 71.7368952,94.8918727 70.59375,96.026 C69.4506048,97.1589182 68.741129,98.7392 68.741129,100.507495 C68.741129,102.275791 69.4506048,103.855468 70.59375,104.988991 C71.7368952,106.123118 73.316129,106.814114 75.0508065,106.814114 C76.8508065,106.814114 78.4487903,106.124327 79.5925403,104.988991 C80.7375,103.854259 81.4288306,102.273977 81.4282258,100.507495 C81.4288306,98.7410136 80.7375,97.1601273 79.5925403,96.026 C78.4487903,94.8906636 76.8508065,94.2002727 75.0508065,94.2008773 L75.0508065,94.4650636 Z" id="Fill-115" fill="#FE1F16"></path>
                </g>
                <text id="PLEASE-FILL-OUT-ALL" font-family="Arial-Black, Arial Black" font-size="18" font-weight="700" letter-spacing="-0.345" fill="#000000">
                    <tspan x="30.7604102" y="183">PLEASE FILL OUT ALL </tspan>
                    <tspan x="60.7332227" y="209">FIELDS BEFORE </tspan>
                    <tspan x="72.8851563" y="235">PROCEEDING</tspan>
                </text>
            </g>
        </g>
    </g>
</svg>